<mxfile host="app.diagrams.net" modified="2021-05-09T15:53:07.336Z" agent="5.0 (Windows NT 10.0; Win64; x64) AppleWebKit/537.36 (KHTML, like Gecko) Chrome/90.0.4430.93 Safari/537.36" etag="LtB3zC5ikhPT5SXtv63F" version="14.6.11" type="github">
  <diagram name="Page-1" id="9f46799a-70d6-7492-0946-bef42562c5a5">
    <mxGraphModel dx="1673" dy="896" grid="1" gridSize="10" guides="1" tooltips="1" connect="1" arrows="1" fold="1" page="1" pageScale="1" pageWidth="1100" pageHeight="850" background="#ffffff" math="0" shadow="0">
      <root>
        <mxCell id="0" />
        <mxCell id="1" parent="0" />
        <mxCell id="78961159f06e98e8-17" value="Users" style="swimlane;html=1;fontStyle=1;align=center;verticalAlign=top;childLayout=stackLayout;horizontal=1;startSize=26;horizontalStack=0;resizeParent=1;resizeLast=0;collapsible=1;marginBottom=0;swimlaneFillColor=#ffffff;rounded=0;shadow=0;comic=0;labelBackgroundColor=none;strokeWidth=1;fillColor=none;fontFamily=Verdana;fontSize=12" parent="1" vertex="1">
          <mxGeometry x="80" y="160" width="160" height="210" as="geometry" />
        </mxCell>
        <mxCell id="78961159f06e98e8-21" value="+ u_id: PRIMARY_KEY" style="text;html=1;strokeColor=#82b366;fillColor=#d5e8d4;align=left;verticalAlign=top;spacingLeft=4;spacingRight=4;whiteSpace=wrap;overflow=hidden;rotatable=0;points=[[0,0.5],[1,0.5]];portConstraint=eastwest;" parent="78961159f06e98e8-17" vertex="1">
          <mxGeometry y="26" width="160" height="26" as="geometry" />
        </mxCell>
        <mxCell id="78961159f06e98e8-23" value="+ u_name: varchar(30)" style="text;html=1;strokeColor=none;fillColor=none;align=left;verticalAlign=top;spacingLeft=4;spacingRight=4;whiteSpace=wrap;overflow=hidden;rotatable=0;points=[[0,0.5],[1,0.5]];portConstraint=eastwest;" parent="78961159f06e98e8-17" vertex="1">
          <mxGeometry y="52" width="160" height="26" as="geometry" />
        </mxCell>
        <mxCell id="78961159f06e98e8-25" value="+ u_surename: varchar(30)" style="text;html=1;strokeColor=none;fillColor=none;align=left;verticalAlign=top;spacingLeft=4;spacingRight=4;whiteSpace=wrap;overflow=hidden;rotatable=0;points=[[0,0.5],[1,0.5]];portConstraint=eastwest;" parent="78961159f06e98e8-17" vertex="1">
          <mxGeometry y="78" width="160" height="26" as="geometry" />
        </mxCell>
        <mxCell id="78961159f06e98e8-26" value="+ u_password: ###" style="text;html=1;strokeColor=none;fillColor=none;align=left;verticalAlign=top;spacingLeft=4;spacingRight=4;whiteSpace=wrap;overflow=hidden;rotatable=0;points=[[0,0.5],[1,0.5]];portConstraint=eastwest;" parent="78961159f06e98e8-17" vertex="1">
          <mxGeometry y="104" width="160" height="26" as="geometry" />
        </mxCell>
        <mxCell id="78961159f06e98e8-24" value="+ u_power_flag: int (0 - 3)&lt;br&gt;&lt;br&gt;+ u_store: FOREGIN_KEY&lt;br&gt;(store_id)" style="text;html=1;strokeColor=none;fillColor=none;align=left;verticalAlign=top;spacingLeft=4;spacingRight=4;whiteSpace=wrap;overflow=hidden;rotatable=0;points=[[0,0.5],[1,0.5]];portConstraint=eastwest;" parent="78961159f06e98e8-17" vertex="1">
          <mxGeometry y="130" width="160" height="80" as="geometry" />
        </mxCell>
        <mxCell id="Wq0vFSovI0Di8dePxdVl-1" value="Products&lt;br&gt;" style="swimlane;html=1;fontStyle=1;align=center;verticalAlign=top;childLayout=stackLayout;horizontal=1;startSize=26;horizontalStack=0;resizeParent=1;resizeLast=0;collapsible=1;marginBottom=0;swimlaneFillColor=#ffffff;rounded=0;shadow=0;comic=0;labelBackgroundColor=none;strokeWidth=1;fillColor=none;fontFamily=Verdana;fontSize=12" vertex="1" parent="1">
          <mxGeometry x="380" y="160" width="200" height="270" as="geometry" />
        </mxCell>
        <mxCell id="Wq0vFSovI0Di8dePxdVl-2" value="+ p_id: PRIMARY_KEY" style="text;html=1;strokeColor=none;fillColor=none;align=left;verticalAlign=top;spacingLeft=4;spacingRight=4;whiteSpace=wrap;overflow=hidden;rotatable=0;points=[[0,0.5],[1,0.5]];portConstraint=eastwest;" vertex="1" parent="Wq0vFSovI0Di8dePxdVl-1">
          <mxGeometry y="26" width="200" height="26" as="geometry" />
        </mxCell>
        <mxCell id="Wq0vFSovI0Di8dePxdVl-3" value="+ p_name: varchar(40)" style="text;html=1;strokeColor=none;fillColor=none;align=left;verticalAlign=top;spacingLeft=4;spacingRight=4;whiteSpace=wrap;overflow=hidden;rotatable=0;points=[[0,0.5],[1,0.5]];portConstraint=eastwest;" vertex="1" parent="Wq0vFSovI0Di8dePxdVl-1">
          <mxGeometry y="52" width="200" height="26" as="geometry" />
        </mxCell>
        <mxCell id="Wq0vFSovI0Di8dePxdVl-4" value="+ p_added_by: (u_id)&lt;br&gt;&lt;br&gt;" style="text;html=1;align=left;verticalAlign=top;spacingLeft=4;spacingRight=4;whiteSpace=wrap;overflow=hidden;rotatable=0;points=[[0,0.5],[1,0.5]];portConstraint=eastwest;fillColor=#d5e8d4;strokeColor=#82b366;" vertex="1" parent="Wq0vFSovI0Di8dePxdVl-1">
          <mxGeometry y="78" width="200" height="32" as="geometry" />
        </mxCell>
        <mxCell id="Wq0vFSovI0Di8dePxdVl-65" value="&lt;span&gt;&amp;nbsp;+ p_type_id: list(types)&lt;/span&gt;" style="text;html=1;strokeColor=#666666;fillColor=#f5f5f5;align=left;verticalAlign=middle;whiteSpace=wrap;rounded=0;fontColor=#333333;" vertex="1" parent="Wq0vFSovI0Di8dePxdVl-1">
          <mxGeometry y="110" width="200" height="20" as="geometry" />
        </mxCell>
        <mxCell id="Wq0vFSovI0Di8dePxdVl-79" value="&lt;span&gt;+ p_price: float&lt;/span&gt;" style="text;html=1;strokeColor=none;fillColor=none;align=left;verticalAlign=middle;whiteSpace=wrap;rounded=0;" vertex="1" parent="Wq0vFSovI0Di8dePxdVl-1">
          <mxGeometry y="130" width="200" height="20" as="geometry" />
        </mxCell>
        <mxCell id="Wq0vFSovI0Di8dePxdVl-7" value="" style="line;html=1;strokeWidth=1;fillColor=none;align=left;verticalAlign=middle;spacingTop=-1;spacingLeft=3;spacingRight=3;rotatable=0;labelPosition=right;points=[];portConstraint=eastwest;" vertex="1" parent="Wq0vFSovI0Di8dePxdVl-1">
          <mxGeometry y="150" width="200" height="50" as="geometry" />
        </mxCell>
        <mxCell id="Wq0vFSovI0Di8dePxdVl-48" value="* edycja dla power flag 1-2" style="text;html=1;strokeColor=none;fillColor=none;align=center;verticalAlign=middle;whiteSpace=wrap;rounded=0;" vertex="1" parent="Wq0vFSovI0Di8dePxdVl-1">
          <mxGeometry y="200" width="200" height="20" as="geometry" />
        </mxCell>
        <mxCell id="Wq0vFSovI0Di8dePxdVl-8" value="Store" style="swimlane;html=1;fontStyle=1;align=center;verticalAlign=top;childLayout=stackLayout;horizontal=1;startSize=26;horizontalStack=0;resizeParent=1;resizeLast=0;collapsible=1;marginBottom=0;swimlaneFillColor=#ffffff;rounded=0;shadow=0;comic=0;labelBackgroundColor=none;strokeWidth=1;fillColor=none;fontFamily=Verdana;fontSize=12" vertex="1" parent="1">
          <mxGeometry x="680" y="160" width="210" height="303" as="geometry" />
        </mxCell>
        <mxCell id="Wq0vFSovI0Di8dePxdVl-9" value="+ store_id: PRIMARY_KEY" style="text;html=1;strokeColor=#d6b656;fillColor=#fff2cc;align=left;verticalAlign=top;spacingLeft=4;spacingRight=4;whiteSpace=wrap;overflow=hidden;rotatable=0;points=[[0,0.5],[1,0.5]];portConstraint=eastwest;" vertex="1" parent="Wq0vFSovI0Di8dePxdVl-8">
          <mxGeometry y="26" width="210" height="26" as="geometry" />
        </mxCell>
        <mxCell id="Wq0vFSovI0Di8dePxdVl-11" value="+ store_name: &quot;vapeking_1&quot;" style="text;html=1;strokeColor=none;fillColor=none;align=left;verticalAlign=top;spacingLeft=4;spacingRight=4;whiteSpace=wrap;overflow=hidden;rotatable=0;points=[[0,0.5],[1,0.5]];portConstraint=eastwest;" vertex="1" parent="Wq0vFSovI0Di8dePxdVl-8">
          <mxGeometry y="52" width="210" height="26" as="geometry" />
        </mxCell>
        <mxCell id="Wq0vFSovI0Di8dePxdVl-64" value="&lt;span&gt;+ store_products: list(products)&lt;/span&gt;" style="text;html=1;strokeColor=#6c8ebf;fillColor=#dae8fc;align=left;verticalAlign=middle;whiteSpace=wrap;rounded=0;" vertex="1" parent="Wq0vFSovI0Di8dePxdVl-8">
          <mxGeometry y="78" width="210" height="30" as="geometry" />
        </mxCell>
        <mxCell id="Wq0vFSovI0Di8dePxdVl-12" value="+ store_city: varchar(20)&lt;br&gt;&lt;br&gt;+ store_storage_id: FOREGIN_KEY" style="text;html=1;strokeColor=none;fillColor=none;align=left;verticalAlign=top;spacingLeft=4;spacingRight=4;whiteSpace=wrap;overflow=hidden;rotatable=0;points=[[0,0.5],[1,0.5]];portConstraint=eastwest;" vertex="1" parent="Wq0vFSovI0Di8dePxdVl-8">
          <mxGeometry y="108" width="210" height="90" as="geometry" />
        </mxCell>
        <mxCell id="Wq0vFSovI0Di8dePxdVl-14" value="" style="line;html=1;strokeWidth=1;fillColor=none;align=left;verticalAlign=middle;spacingTop=-1;spacingLeft=3;spacingRight=3;rotatable=0;labelPosition=right;points=[];portConstraint=eastwest;" vertex="1" parent="Wq0vFSovI0Di8dePxdVl-8">
          <mxGeometry y="198" width="210" height="8" as="geometry" />
        </mxCell>
        <mxCell id="Wq0vFSovI0Di8dePxdVl-47" value="* edycja dla power_flag 2-3" style="text;html=1;strokeColor=none;fillColor=none;align=center;verticalAlign=middle;whiteSpace=wrap;rounded=0;" vertex="1" parent="Wq0vFSovI0Di8dePxdVl-8">
          <mxGeometry y="206" width="210" height="64" as="geometry" />
        </mxCell>
        <mxCell id="Wq0vFSovI0Di8dePxdVl-16" value="Types" style="swimlane;html=1;fontStyle=1;align=center;verticalAlign=top;childLayout=stackLayout;horizontal=1;startSize=26;horizontalStack=0;resizeParent=1;resizeLast=0;collapsible=1;marginBottom=0;swimlaneFillColor=#ffffff;rounded=0;shadow=0;comic=0;labelBackgroundColor=none;strokeWidth=1;fillColor=none;fontFamily=Verdana;fontSize=12" vertex="1" parent="1">
          <mxGeometry x="380" y="450" width="200" height="123" as="geometry" />
        </mxCell>
        <mxCell id="Wq0vFSovI0Di8dePxdVl-17" value="+ type_id: PRIMARY_KEY" style="text;html=1;strokeColor=#666666;fillColor=#f5f5f5;align=left;verticalAlign=top;spacingLeft=4;spacingRight=4;whiteSpace=wrap;overflow=hidden;rotatable=0;points=[[0,0.5],[1,0.5]];portConstraint=eastwest;fontColor=#333333;" vertex="1" parent="Wq0vFSovI0Di8dePxdVl-16">
          <mxGeometry y="26" width="200" height="26" as="geometry" />
        </mxCell>
        <mxCell id="Wq0vFSovI0Di8dePxdVl-18" value="+ u_name: varchar(30)" style="text;html=1;strokeColor=none;fillColor=none;align=left;verticalAlign=top;spacingLeft=4;spacingRight=4;whiteSpace=wrap;overflow=hidden;rotatable=0;points=[[0,0.5],[1,0.5]];portConstraint=eastwest;" vertex="1" parent="Wq0vFSovI0Di8dePxdVl-16">
          <mxGeometry y="52" width="200" height="26" as="geometry" />
        </mxCell>
        <mxCell id="Wq0vFSovI0Di8dePxdVl-22" value="" style="line;html=1;strokeWidth=1;fillColor=none;align=left;verticalAlign=middle;spacingTop=-1;spacingLeft=3;spacingRight=3;rotatable=0;labelPosition=right;points=[];portConstraint=eastwest;" vertex="1" parent="Wq0vFSovI0Di8dePxdVl-16">
          <mxGeometry y="78" width="200" height="8" as="geometry" />
        </mxCell>
        <mxCell id="Wq0vFSovI0Di8dePxdVl-49" value="* dodane na sztywno *" style="text;html=1;strokeColor=none;fillColor=none;align=center;verticalAlign=middle;whiteSpace=wrap;rounded=0;" vertex="1" parent="Wq0vFSovI0Di8dePxdVl-16">
          <mxGeometry y="86" width="200" height="20" as="geometry" />
        </mxCell>
        <mxCell id="Wq0vFSovI0Di8dePxdVl-26" style="edgeStyle=orthogonalEdgeStyle;rounded=0;orthogonalLoop=1;jettySize=auto;html=1;entryX=-0.012;entryY=0.159;entryDx=0;entryDy=0;entryPerimeter=0;" edge="1" parent="1" source="78961159f06e98e8-21" target="Wq0vFSovI0Di8dePxdVl-4">
          <mxGeometry relative="1" as="geometry" />
        </mxCell>
        <mxCell id="Wq0vFSovI0Di8dePxdVl-27" style="edgeStyle=orthogonalEdgeStyle;rounded=0;orthogonalLoop=1;jettySize=auto;html=1;exitX=0;exitY=0.5;exitDx=0;exitDy=0;entryX=0;entryY=0.5;entryDx=0;entryDy=0;" edge="1" parent="1" source="Wq0vFSovI0Di8dePxdVl-17" target="Wq0vFSovI0Di8dePxdVl-65">
          <mxGeometry relative="1" as="geometry">
            <mxPoint x="380" y="340" as="targetPoint" />
          </mxGeometry>
        </mxCell>
        <mxCell id="Wq0vFSovI0Di8dePxdVl-29" value="1:1" style="text;html=1;strokeColor=none;fillColor=none;align=center;verticalAlign=middle;whiteSpace=wrap;rounded=0;" vertex="1" parent="1">
          <mxGeometry x="330" y="220" width="40" height="20" as="geometry" />
        </mxCell>
        <mxCell id="Wq0vFSovI0Di8dePxdVl-32" style="edgeStyle=orthogonalEdgeStyle;rounded=0;orthogonalLoop=1;jettySize=auto;html=1;exitX=1;exitY=0.5;exitDx=0;exitDy=0;entryX=0;entryY=0.098;entryDx=0;entryDy=0;entryPerimeter=0;" edge="1" parent="1" source="Wq0vFSovI0Di8dePxdVl-2" target="Wq0vFSovI0Di8dePxdVl-12">
          <mxGeometry relative="1" as="geometry">
            <mxPoint x="610" y="317" as="targetPoint" />
          </mxGeometry>
        </mxCell>
        <mxCell id="Wq0vFSovI0Di8dePxdVl-33" value="n:1" style="text;html=1;strokeColor=none;fillColor=none;align=center;verticalAlign=middle;whiteSpace=wrap;rounded=0;" vertex="1" parent="1">
          <mxGeometry x="600" y="180" width="40" height="20" as="geometry" />
        </mxCell>
        <mxCell id="Wq0vFSovI0Di8dePxdVl-35" value="1:1" style="text;html=1;strokeColor=none;fillColor=none;align=center;verticalAlign=middle;whiteSpace=wrap;rounded=0;" vertex="1" parent="1">
          <mxGeometry x="570" y="90" width="40" height="20" as="geometry" />
        </mxCell>
        <mxCell id="Wq0vFSovI0Di8dePxdVl-41" value="Storage" style="swimlane;html=1;fontStyle=1;align=center;verticalAlign=top;childLayout=stackLayout;horizontal=1;startSize=26;horizontalStack=0;resizeParent=1;resizeLast=0;collapsible=1;marginBottom=0;swimlaneFillColor=#ffffff;rounded=0;shadow=0;comic=0;labelBackgroundColor=none;strokeWidth=1;fillColor=none;fontFamily=Verdana;fontSize=12" vertex="1" parent="1">
          <mxGeometry x="680" y="470" width="210" height="410" as="geometry" />
        </mxCell>
        <mxCell id="Wq0vFSovI0Di8dePxdVl-42" value="+ s_id: PRIMARY_KEY" style="text;html=1;strokeColor=none;fillColor=none;align=left;verticalAlign=top;spacingLeft=4;spacingRight=4;whiteSpace=wrap;overflow=hidden;rotatable=0;points=[[0,0.5],[1,0.5]];portConstraint=eastwest;" vertex="1" parent="Wq0vFSovI0Di8dePxdVl-41">
          <mxGeometry y="26" width="210" height="26" as="geometry" />
        </mxCell>
        <mxCell id="Wq0vFSovI0Di8dePxdVl-43" value="+ item_product_id: FOREGIN(product_id)" style="text;html=1;strokeColor=none;fillColor=none;align=left;verticalAlign=top;spacingLeft=4;spacingRight=4;whiteSpace=wrap;overflow=hidden;rotatable=0;points=[[0,0.5],[1,0.5]];portConstraint=eastwest;" vertex="1" parent="Wq0vFSovI0Di8dePxdVl-41">
          <mxGeometry y="52" width="210" height="38" as="geometry" />
        </mxCell>
        <mxCell id="Wq0vFSovI0Di8dePxdVl-44" value="+ item_quantity: int(default = 0)&lt;br&gt;&lt;br&gt;+ item_price: float(default=product.price)&lt;br&gt;&lt;br&gt;+ item_name: product.name&lt;br&gt;&lt;br&gt;+ item_type: SELECT(def = product.type)" style="text;html=1;strokeColor=#6c8ebf;fillColor=#dae8fc;align=left;verticalAlign=top;spacingLeft=4;spacingRight=4;whiteSpace=wrap;overflow=hidden;rotatable=0;points=[[0,0.5],[1,0.5]];portConstraint=eastwest;" vertex="1" parent="Wq0vFSovI0Di8dePxdVl-41">
          <mxGeometry y="90" width="210" height="140" as="geometry" />
        </mxCell>
        <mxCell id="Wq0vFSovI0Di8dePxdVl-45" value="" style="line;html=1;strokeWidth=1;fillColor=none;align=left;verticalAlign=middle;spacingTop=-1;spacingLeft=3;spacingRight=3;rotatable=0;labelPosition=right;points=[];portConstraint=eastwest;" vertex="1" parent="Wq0vFSovI0Di8dePxdVl-41">
          <mxGeometry y="230" width="210" height="128" as="geometry" />
        </mxCell>
        <mxCell id="Wq0vFSovI0Di8dePxdVl-51" value="." style="text;html=1;strokeColor=none;fillColor=none;align=center;verticalAlign=middle;whiteSpace=wrap;rounded=0;" vertex="1" parent="1">
          <mxGeometry x="890" y="275" height="20" as="geometry" />
        </mxCell>
        <mxCell id="Wq0vFSovI0Di8dePxdVl-55" value="Orders" style="swimlane;html=1;fontStyle=1;align=center;verticalAlign=top;childLayout=stackLayout;horizontal=1;startSize=26;horizontalStack=0;resizeParent=1;resizeLast=0;collapsible=1;marginBottom=0;swimlaneFillColor=#ffffff;rounded=0;shadow=0;comic=0;labelBackgroundColor=none;strokeWidth=1;fillColor=none;fontFamily=Verdana;fontSize=12" vertex="1" parent="1">
          <mxGeometry x="380" y="600" width="200" height="270" as="geometry" />
        </mxCell>
        <mxCell id="Wq0vFSovI0Di8dePxdVl-56" value="+ order_id: PRIMARY_KEY" style="text;html=1;strokeColor=none;fillColor=none;align=left;verticalAlign=top;spacingLeft=4;spacingRight=4;whiteSpace=wrap;overflow=hidden;rotatable=0;points=[[0,0.5],[1,0.5]];portConstraint=eastwest;" vertex="1" parent="Wq0vFSovI0Di8dePxdVl-55">
          <mxGeometry y="26" width="200" height="26" as="geometry" />
        </mxCell>
        <mxCell id="Wq0vFSovI0Di8dePxdVl-57" value="+ employer_id: FOREGIN(u_id)" style="text;html=1;strokeColor=#82b366;fillColor=#d5e8d4;align=left;verticalAlign=top;spacingLeft=4;spacingRight=4;whiteSpace=wrap;overflow=hidden;rotatable=0;points=[[0,0.5],[1,0.5]];portConstraint=eastwest;" vertex="1" parent="Wq0vFSovI0Di8dePxdVl-55">
          <mxGeometry y="52" width="200" height="26" as="geometry" />
        </mxCell>
        <mxCell id="Wq0vFSovI0Di8dePxdVl-71" value="&lt;div style=&quot;text-align: left&quot;&gt;&lt;span&gt;+ order_store: FOREGIN(store_id)&lt;/span&gt;&lt;/div&gt;" style="text;html=1;strokeColor=#d6b656;fillColor=#fff2cc;align=center;verticalAlign=middle;whiteSpace=wrap;rounded=0;" vertex="1" parent="Wq0vFSovI0Di8dePxdVl-55">
          <mxGeometry y="78" width="200" height="22" as="geometry" />
        </mxCell>
        <mxCell id="Wq0vFSovI0Di8dePxdVl-73" value="+ order_products : list(products)" style="text;html=1;strokeColor=#6c8ebf;fillColor=#dae8fc;align=left;verticalAlign=middle;whiteSpace=wrap;rounded=0;" vertex="1" parent="Wq0vFSovI0Di8dePxdVl-55">
          <mxGeometry y="100" width="200" height="20" as="geometry" />
        </mxCell>
        <mxCell id="Wq0vFSovI0Di8dePxdVl-74" value="+ order_price sum(products.price)" style="text;html=1;strokeColor=none;fillColor=none;align=left;verticalAlign=middle;whiteSpace=wrap;rounded=0;" vertex="1" parent="Wq0vFSovI0Di8dePxdVl-55">
          <mxGeometry y="120" width="200" height="20" as="geometry" />
        </mxCell>
        <mxCell id="Wq0vFSovI0Di8dePxdVl-75" value="+ order_datetime: datetime.now" style="text;html=1;strokeColor=none;fillColor=none;align=left;verticalAlign=middle;whiteSpace=wrap;rounded=0;" vertex="1" parent="Wq0vFSovI0Di8dePxdVl-55">
          <mxGeometry y="140" width="200" height="20" as="geometry" />
        </mxCell>
        <mxCell id="Wq0vFSovI0Di8dePxdVl-76" value="+ order_desc varchar(optional)(130)" style="text;html=1;strokeColor=none;fillColor=none;align=center;verticalAlign=middle;whiteSpace=wrap;rounded=0;" vertex="1" parent="Wq0vFSovI0Di8dePxdVl-55">
          <mxGeometry y="160" width="200" height="20" as="geometry" />
        </mxCell>
        <mxCell id="Wq0vFSovI0Di8dePxdVl-63" style="edgeStyle=orthogonalEdgeStyle;rounded=0;orthogonalLoop=1;jettySize=auto;html=1;entryX=1;entryY=0.5;entryDx=0;entryDy=0;" edge="1" parent="1" source="Wq0vFSovI0Di8dePxdVl-44" target="Wq0vFSovI0Di8dePxdVl-64">
          <mxGeometry relative="1" as="geometry">
            <Array as="points">
              <mxPoint x="960" y="630" />
              <mxPoint x="960" y="260" />
              <mxPoint x="890" y="260" />
            </Array>
          </mxGeometry>
        </mxCell>
        <mxCell id="Wq0vFSovI0Di8dePxdVl-30" value="1:1" style="text;html=1;strokeColor=none;fillColor=none;align=center;verticalAlign=middle;whiteSpace=wrap;rounded=0;" vertex="1" parent="1">
          <mxGeometry x="890" y="415" width="40" height="20" as="geometry" />
        </mxCell>
        <mxCell id="Wq0vFSovI0Di8dePxdVl-68" style="edgeStyle=orthogonalEdgeStyle;rounded=0;orthogonalLoop=1;jettySize=auto;html=1;entryX=1.008;entryY=0.572;entryDx=0;entryDy=0;entryPerimeter=0;" edge="1" parent="1" source="Wq0vFSovI0Di8dePxdVl-42" target="Wq0vFSovI0Di8dePxdVl-12">
          <mxGeometry relative="1" as="geometry">
            <Array as="points">
              <mxPoint x="930" y="509" />
              <mxPoint x="930" y="313" />
              <mxPoint x="892" y="313" />
            </Array>
          </mxGeometry>
        </mxCell>
        <mxCell id="Wq0vFSovI0Di8dePxdVl-69" style="edgeStyle=orthogonalEdgeStyle;rounded=0;orthogonalLoop=1;jettySize=auto;html=1;entryX=0;entryY=0.5;entryDx=0;entryDy=0;" edge="1" parent="1" source="Wq0vFSovI0Di8dePxdVl-57" target="78961159f06e98e8-21">
          <mxGeometry relative="1" as="geometry" />
        </mxCell>
        <mxCell id="Wq0vFSovI0Di8dePxdVl-70" value="1:1" style="text;html=1;strokeColor=none;fillColor=none;align=center;verticalAlign=middle;whiteSpace=wrap;rounded=0;" vertex="1" parent="1">
          <mxGeometry x="60" y="550" width="40" height="20" as="geometry" />
        </mxCell>
        <mxCell id="Wq0vFSovI0Di8dePxdVl-72" style="edgeStyle=orthogonalEdgeStyle;rounded=0;orthogonalLoop=1;jettySize=auto;html=1;exitX=1;exitY=0.5;exitDx=0;exitDy=0;" edge="1" parent="1" source="Wq0vFSovI0Di8dePxdVl-71" target="Wq0vFSovI0Di8dePxdVl-9">
          <mxGeometry relative="1" as="geometry">
            <Array as="points">
              <mxPoint x="610" y="689" />
              <mxPoint x="610" y="210" />
            </Array>
          </mxGeometry>
        </mxCell>
        <mxCell id="Wq0vFSovI0Di8dePxdVl-82" style="edgeStyle=orthogonalEdgeStyle;rounded=0;orthogonalLoop=1;jettySize=auto;html=1;exitX=1;exitY=0.5;exitDx=0;exitDy=0;entryX=1;entryY=0.5;entryDx=0;entryDy=0;" edge="1" parent="1" source="Wq0vFSovI0Di8dePxdVl-9" target="78961159f06e98e8-24">
          <mxGeometry relative="1" as="geometry">
            <Array as="points">
              <mxPoint x="910" y="199" />
              <mxPoint x="910" y="110" />
              <mxPoint x="280" y="110" />
              <mxPoint x="280" y="330" />
            </Array>
          </mxGeometry>
        </mxCell>
      </root>
    </mxGraphModel>
  </diagram>
</mxfile>
